<svg xmlns="http://www.w3.org/2000/svg" viewBox="0 0 800 450">
  <defs><linearGradient id="g" x1="0" y1="0" x2="1" y2="1"><stop stop-color="#fff3e8"/><stop offset="1" stop-color="#ffd9b7"/></linearGradient></defs>
  <rect width="800" height="450" rx="40" fill="url(#g)"/>
  <circle cx="140" cy="105" r="38" fill="#ffe7cb"/><circle cx="655" cy="335" r="55" fill="#ffc995" opacity=".6"/>
  <path d="M257 176c25-31 75-47 143-47s118 16 143 47c31 39 54 105 31 152-15 31-54 36-80 14l-55-45h-78l-55 45c-26 22-65 17-80-14-23-47 0-113 31-152z" fill="#f59c3b" stroke="#c66e1c" stroke-width="10"/>
  <rect x="285" y="210" width="86" height="22" rx="8" fill="#80461b"/><rect x="317" y="178" width="22" height="86" rx="8" fill="#80461b"/>
  <circle cx="500" cy="205" r="20" fill="#6b4a98"/><circle cx="545" cy="245" r="20" fill="#397ec6"/><circle cx="500" cy="285" r="20" fill="#63a556"/><circle cx="455" cy="245" r="20" fill="#d34b4b"/>
</svg>
